<?xml version="1.0" encoding="utf-8"?>
<!-- Generator: Adobe Illustrator 16.0.0, SVG Export Plug-In . SVG Version: 6.00 Build 0)  -->
<!DOCTYPE svg PUBLIC "-//W3C//DTD SVG 1.1//EN" "http://www.w3.org/Graphics/SVG/1.1/DTD/svg11.dtd">
<svg version="1.1" id="Calque_1" xmlns="http://www.w3.org/2000/svg" xmlns:xlink="http://www.w3.org/1999/xlink" x="0px" y="0px"
	 width="141.732px" height="60px" viewBox="0 38.366 141.732 60" enable-background="new 0 38.366 141.732 60" xml:space="preserve"
	>
<g>
	<text transform="matrix(1 0 0 1 16.5149 86.2917)" fill="#567CBE" font-family="'AvenirNext-UltraLight'" font-size="48">S</text>
	
		<text transform="matrix(1 0 0 1 16.5149 86.2917)" fill="none" stroke="#567CBE" stroke-width="4.252" stroke-miterlimit="10" font-family="'AvenirNext-UltraLight'" font-size="48">S</text>
</g>
<path fill="#FADD00" d="M103.042,46.008c-13.148,0-23.812,10.661-23.812,23.812s10.663,23.812,23.812,23.812
	c13.153,0,23.814-10.661,23.814-23.812S116.195,46.008,103.042,46.008z M102.937,75.416c0,4.412-3.577,7.989-7.99,7.989
	c-4.412,0-7.988-3.577-7.988-7.989V58.328h15.979L102.937,75.416L102.937,75.416z M113.036,74.307v9.099h-7.988V66.317
	c0-4.413,3.576-7.989,7.988-7.989c4.413,0,7.99,3.576,7.99,7.989C121.026,70.729,117.449,74.307,113.036,74.307z"/>
<line fill="none" stroke="#EC604C" stroke-width="4.252" stroke-linecap="round" stroke-miterlimit="10" x1="50.259" y1="94.679" x2="74.927" y2="46.098"/>
</svg>
