<?xml version="1.0" encoding="utf-8"?>
<!-- Generator: Adobe Illustrator 16.0.0, SVG Export Plug-In . SVG Version: 6.00 Build 0)  -->
<!DOCTYPE svg PUBLIC "-//W3C//DTD SVG 1.1//EN" "http://www.w3.org/Graphics/SVG/1.1/DTD/svg11.dtd">
<svg version="1.1" id="Calque_1" xmlns="http://www.w3.org/2000/svg" xmlns:xlink="http://www.w3.org/1999/xlink" x="0px" y="0px"
	 width="141.732px" height="60px" viewBox="0 0 141.732 60" enable-background="new 0 0 141.732 60" xml:space="preserve">
<g>
	<g enable-background="new    ">
		<path fill="#567CBE" d="M40.419,37.744c0,1.44-0.28,2.729-0.84,3.864c-0.56,1.136-1.304,2.096-2.232,2.88
			c-0.929,0.784-2.024,1.376-3.288,1.776c-1.265,0.399-2.584,0.6-3.96,0.6c-2.112,0-4.04-0.376-5.784-1.128
			s-3.192-1.768-4.344-3.048l0.816-0.72c1.216,1.312,2.632,2.296,4.248,2.951c1.616,0.656,3.288,0.984,5.016,0.984
			c1.248,0,2.431-0.184,3.552-0.552c1.12-0.368,2.112-0.896,2.976-1.584c0.864-0.688,1.543-1.536,2.04-2.544
			c0.496-1.009,0.744-2.168,0.744-3.48c0-1.312-0.272-2.416-0.816-3.312c-0.545-0.896-1.248-1.664-2.112-2.305
			c-0.864-0.64-1.848-1.176-2.952-1.607c-1.104-0.433-2.216-0.823-3.336-1.176c-1.408-0.448-2.696-0.92-3.864-1.416
			c-1.168-0.496-2.177-1.104-3.024-1.824c-0.849-0.72-1.505-1.584-1.968-2.592c-0.464-1.009-0.696-2.232-0.696-3.673
			c0-1.407,0.28-2.663,0.84-3.768c0.56-1.104,1.32-2.031,2.28-2.784c0.96-0.751,2.071-1.327,3.336-1.728
			c1.264-0.4,2.6-0.601,4.008-0.601c1.728,0,3.368,0.329,4.92,0.984c1.552,0.656,2.824,1.592,3.816,2.808l-0.816,0.721
			c-0.896-1.12-2.04-1.992-3.432-2.616c-1.392-0.624-2.904-0.937-4.536-0.937c-1.152,0-2.28,0.161-3.384,0.48
			c-1.104,0.32-2.104,0.809-3,1.464c-0.896,0.656-1.616,1.48-2.16,2.472c-0.544,0.992-0.816,2.16-0.816,3.504
			c0,1.312,0.24,2.425,0.72,3.337c0.48,0.911,1.12,1.688,1.92,2.327c0.8,0.641,1.704,1.169,2.712,1.584
			c1.008,0.417,2.04,0.801,3.096,1.152c1.44,0.48,2.784,0.969,4.032,1.464c1.248,0.497,2.344,1.097,3.288,1.8
			c0.944,0.705,1.68,1.561,2.208,2.568C40.156,35.08,40.419,36.305,40.419,37.744z"/>
	</g>
	<g enable-background="new    ">
		<path fill="none" stroke="#567CBE" stroke-width="4.252" stroke-miterlimit="10" d="M40.419,37.744c0,1.44-0.28,2.729-0.84,3.864
			c-0.56,1.136-1.304,2.096-2.232,2.88c-0.929,0.784-2.024,1.376-3.288,1.776c-1.265,0.399-2.584,0.6-3.96,0.6
			c-2.112,0-4.04-0.376-5.784-1.128s-3.192-1.768-4.344-3.048l0.816-0.72c1.216,1.312,2.632,2.296,4.248,2.951
			c1.616,0.656,3.288,0.984,5.016,0.984c1.248,0,2.431-0.184,3.552-0.552c1.12-0.368,2.112-0.896,2.976-1.584
			c0.864-0.688,1.543-1.536,2.04-2.544c0.496-1.009,0.744-2.168,0.744-3.48c0-1.312-0.272-2.416-0.816-3.312
			c-0.545-0.896-1.248-1.664-2.112-2.305c-0.864-0.64-1.848-1.176-2.952-1.607c-1.104-0.433-2.216-0.823-3.336-1.176
			c-1.408-0.448-2.696-0.92-3.864-1.416c-1.168-0.496-2.177-1.104-3.024-1.824c-0.849-0.72-1.505-1.584-1.968-2.592
			c-0.464-1.009-0.696-2.232-0.696-3.673c0-1.407,0.28-2.663,0.84-3.768c0.56-1.104,1.32-2.031,2.28-2.784
			c0.96-0.751,2.071-1.327,3.336-1.728c1.264-0.4,2.6-0.601,4.008-0.601c1.728,0,3.368,0.329,4.92,0.984
			c1.552,0.656,2.824,1.592,3.816,2.808l-0.816,0.721c-0.896-1.12-2.04-1.992-3.432-2.616c-1.392-0.624-2.904-0.937-4.536-0.937
			c-1.152,0-2.28,0.161-3.384,0.48c-1.104,0.32-2.104,0.809-3,1.464c-0.896,0.656-1.616,1.48-2.16,2.472
			c-0.544,0.992-0.816,2.16-0.816,3.504c0,1.312,0.24,2.425,0.72,3.337c0.48,0.911,1.12,1.688,1.92,2.327
			c0.8,0.641,1.704,1.169,2.712,1.584c1.008,0.417,2.04,0.801,3.096,1.152c1.44,0.48,2.784,0.969,4.032,1.464
			c1.248,0.497,2.344,1.097,3.288,1.8c0.944,0.705,1.68,1.561,2.208,2.568C40.156,35.08,40.419,36.305,40.419,37.744z"/>
	</g>
</g>
<g>
	<path fill="#FADD00" d="M103.042,5.62c-13.147,0-23.812,10.661-23.812,23.812c0,13.15,10.663,23.812,23.812,23.812
		c13.153,0,23.814-10.661,23.814-23.812C126.856,16.281,116.195,5.62,103.042,5.62z M102.937,35.028c0,4.412-3.577,7.988-7.99,7.988
		c-4.412,0-7.988-3.576-7.988-7.988V17.94h15.979L102.937,35.028L102.937,35.028z M113.036,33.919v9.1h-7.988v-17.09
		c0-4.412,3.576-7.988,7.988-7.988c4.413,0,7.99,3.576,7.99,7.988S117.449,33.919,113.036,33.919z"/>
</g>
<g>
	<path fill="#EC604C" d="M50.257,56.418c-0.324,0-0.652-0.073-0.961-0.23c-1.047-0.531-1.465-1.812-0.933-2.858L73.032,4.747
		c0.531-1.046,1.81-1.467,2.858-0.933c1.047,0.531,1.464,1.812,0.933,2.858L52.154,55.255
		C51.779,55.993,51.032,56.418,50.257,56.418z"/>
</g>
</svg>
